<svg width="48" height="48" viewBox="0 0 48 48" fill="none" xmlns="http://www.w3.org/2000/svg">
<path d="M31.0591 24H27.9927C27.5667 22.7987 26.6134 21.8454 25.412 21.4193V18.3529H28.2356V15.5294H19.765V18.3529H22.5885V21.4193C21.3872 21.8454 20.4339 22.7987 20.0078 24H16.9414V21.1765H14.1179V29.6471H16.9414V26.8235H20.0078C20.4339 28.0249 21.3872 28.9782 22.5885 29.4042V32.4706H19.765V35.2941H28.2356V32.4706H25.412V29.4042C26.6134 28.9782 27.5667 28.0249 27.9927 26.8235H31.0591V29.6471H33.8826V21.1765H31.0591V24ZM24.0003 26.8235C23.2217 26.8235 22.5885 26.1903 22.5885 25.4118C22.6594 23.5415 25.3415 23.5419 25.412 25.4118C25.412 26.1903 24.7787 26.8235 24.0003 26.8235Z" fill="#00AA81"/>
<path d="M29.8847 3.60066L32.2851 0H15.7153L18.1158 3.60066C-7.06523 10.9096 -2.36904 47.4689 24.0005 48C50.3815 47.4638 55.0546 10.9004 29.8847 3.60066ZM43.7149 24H40.882C40.5825 20.388 39.145 17.0943 36.9299 14.4786L38.9535 12.4549C41.6807 15.6053 43.4077 19.619 43.7149 24ZM36.9575 10.458L34.9334 12.4821C32.5861 10.4941 29.6931 9.13224 26.5136 8.65722L28.2196 6.09816C31.5434 6.81713 34.52 8.34692 36.9575 10.458ZM27.0094 2.82353L24.0002 7.33722L20.991 2.82353H27.0094ZM19.7807 6.09826L21.4867 8.65732C18.3072 9.13224 15.4141 10.4942 13.0669 12.4822L11.0428 10.4581C13.4804 8.34692 16.4569 6.81713 19.7807 6.09826ZM9.04677 12.455L11.0704 14.4787C8.85524 17.0943 7.41778 20.388 7.1183 24H4.28536C4.59256 19.619 6.31971 15.6053 9.04677 12.455ZM4.2864 26.8235H7.1183C7.41778 30.4357 8.85524 33.7293 11.0705 36.3449L9.06823 38.3473C6.34795 35.2114 4.59774 31.2131 4.2864 26.8235ZM22.5884 45.1255C18.1989 44.8141 14.2007 43.0639 11.0647 40.3437L13.067 38.3415C15.6827 40.5567 18.9764 41.9942 22.5884 42.2936V45.1255ZM9.88254 25.4118C9.88254 17.6148 16.2032 11.2941 24.0002 11.2941C42.7068 11.9863 42.7017 38.8401 24 39.5294C16.2032 39.5294 9.88254 33.2088 9.88254 25.4118ZM25.412 45.1255V42.2936C29.024 41.9942 32.3176 40.5567 34.9334 38.3415L36.9356 40.3437C33.7997 43.064 29.8014 44.8142 25.412 45.1255ZM38.9321 38.3473L36.9299 36.345C39.1451 33.7293 40.5826 30.4357 40.8821 26.8236H43.714C43.4026 31.2131 41.6523 35.2114 38.9321 38.3473Z" fill="#00AA81"/>
</svg>
