<svg width="20" height="20" viewBox="0 0 20 20" fill="none" xmlns="http://www.w3.org/2000/svg">
<g clip-path="url(#clip0_3921_93)">
<path d="M20 15.2941H16.4706V12.9412H13.8973C19.6513 9.1329 16.9954 0.0301569 9.99988 0C3.0042 0.0303922 0.348863 9.1342 6.10271 12.9412H3.52941V15.2941H0V16.6095L0.518784 17.6471L0 18.6847V20H6.47059V17.6471H13.5294V20H20V18.6847L19.4812 17.6471L20 16.6095V15.2941ZM6.47059 7.05882C6.47059 5.11271 8.05388 3.52941 10 3.52941C14.6758 3.70686 14.6745 10.4115 9.99996 10.5882C8.05388 10.5882 6.47059 9.00494 6.47059 7.05882ZM10.5882 11.728C11.4462 11.6205 12.2331 11.2811 12.884 10.7747L13.7207 11.6115C12.849 12.3252 11.7696 12.794 10.5882 12.9119V11.728ZM13.7159 9.94286C14.2222 9.29192 14.5617 8.5051 14.6692 7.64706H15.853C15.7352 8.82843 15.2663 9.90788 14.5526 10.7796L13.7159 9.94286ZM14.6692 6.47059C14.5617 5.61259 14.2223 4.82573 13.7159 4.17478L14.5526 3.33812C15.2663 4.2098 15.7352 5.28926 15.853 6.47059H14.6692ZM12.884 3.3429C12.2331 2.83655 11.4462 2.4971 10.5882 2.38961V1.20576C11.7696 1.32361 12.8491 1.79247 13.7207 2.5062L12.884 3.3429ZM9.41177 2.38961C8.55377 2.49706 7.7669 2.83651 7.11596 3.3429L6.27926 2.5062C7.15094 1.79247 8.23039 1.32361 9.41177 1.20576V2.38961ZM6.28408 4.17478C5.77773 4.82573 5.43827 5.61255 5.33078 6.47059H4.14694C4.26478 5.28922 4.73365 4.2098 5.44733 3.33812L6.28408 4.17478ZM5.33082 7.64706C5.43827 8.5051 5.77773 9.29192 6.28412 9.94286L5.44741 10.7796C4.73369 9.90788 4.26482 8.82843 4.14698 7.64706H5.33082ZM7.116 10.7747C7.76694 11.2811 8.55377 11.6205 9.41177 11.728V12.9118C8.23043 12.794 7.15098 12.3251 6.27929 11.6114L7.116 10.7747ZM4.70588 14.1176H15.2941V16.4706H4.70588V14.1176ZM5.29412 18.8235H1.24592L1.83416 17.6471L1.24592 16.4706H3.52941V17.6471H5.29412V18.8235ZM18.7541 18.8235H14.7059V17.6471H16.4706V16.4706H18.7541L18.1658 17.6471L18.7541 18.8235Z" fill="#1A2930"/>
<path d="M10 8.82356C10.9731 8.82356 11.7647 8.03191 11.7647 7.05885C11.676 4.72093 8.32364 4.7216 8.23529 7.05889C8.23529 8.03191 9.0269 8.82356 10 8.82356ZM10 6.47062C10.3244 6.47062 10.5882 6.7345 10.5882 7.05885C10.5587 7.83814 9.44117 7.83795 9.41176 7.05885C9.41176 6.73446 9.67564 6.47062 10 6.47062Z" fill="#1A2930"/>
</g>
<defs>
<clipPath id="clip0_3921_93">
<rect width="20" height="20" fill="white"/>
</clipPath>
</defs>
</svg>
