<svg width="32" height="32" viewBox="0 0 32 32" fill="none" xmlns="http://www.w3.org/2000/svg">
<path d="M17.7644 10.3768L16 7.70312L14.2355 10.3768L11.1475 11.2286L13.145 13.7329L13.001 16.933L16 15.8072L18.9989 16.933L18.8549 13.7329L20.8524 11.2286L17.7644 10.3768ZM16.9902 14.1683L16 13.7965L15.0097 14.1683L15.0573 13.1116L14.3977 12.2846L15.4174 12.0034L16 11.1205L16.5826 12.0034L17.6023 12.2846L16.9427 13.1116L16.9902 14.1683Z" fill="#FFD432"/>
<path d="M30.1176 14.1176V15.9116C30.1176 16.4806 29.6572 16.9412 29.088 16.9412C28.3841 16.9412 27.8879 16.2533 28.1105 15.5856L29.1765 12.388C29.7753 10.5916 30.1176 8.63467 30.1176 6.58824C30.1176 4.08784 27.7235 2.27984 25.3182 2.97098L25.4566 0H6.54337L6.68179 2.97098C4.27922 2.2806 1.88235 4.08515 1.88235 6.58824C1.88235 8.47824 2.17506 10.4427 2.82353 12.388L3.88957 15.5854C4.11206 16.2531 3.61619 16.9412 2.912 16.9412C2.34296 16.9412 1.88235 16.4807 1.88235 15.9116V14.1176H0V15.9116C0 17.5208 1.30234 18.8235 2.912 18.8235C4.90227 18.8235 6.30469 16.8782 5.67529 14.9902L4.60926 11.7928C4.07184 10.1806 3.76471 8.42466 3.76471 6.58824C3.76471 5.54792 4.60656 4.70588 5.64706 4.70588C6.06331 4.70588 6.45584 4.83909 6.78024 5.08524L7.2032 14.1657C7.36496 17.8874 9.82224 20.9924 13.1764 22.1257V26.3529H10.3529V30.1176H8.47053V32H23.5294V30.1176H21.647V26.3529H18.8235V22.1257C22.1612 20.998 24.6341 17.9058 24.7966 14.1687L25.2196 5.08524C25.5442 4.83909 25.9367 4.70588 26.3529 4.70588C27.3931 4.70588 28.2353 5.54755 28.2353 6.58824C28.2353 8.28405 27.9727 10.0471 27.3907 11.7927L26.3247 14.9902C25.6954 16.8783 27.0977 18.8235 29.088 18.8235C30.6974 18.8235 32 17.5212 32 15.9116V14.1176H30.1176ZM23.4846 1.88235L23.3969 3.76471H8.60311L8.51545 1.88235H23.4846ZM19.7647 28.2353V30.1176H12.2353V28.2353H19.7647ZM16.9412 26.3529H15.0588V22.5379C15.6742 22.6033 16.2935 22.6067 16.9412 22.5379V26.3529ZM16 20.7059C12.2832 20.7059 9.2453 17.7972 9.08361 14.081L8.69082 5.64706H23.3092L22.9162 14.084C22.7547 17.7972 19.7168 20.7059 16 20.7059Z" fill="#FFD432"/>
</svg>
